<?xml version="1.0" encoding="utf-8"?>
<!-- Generator: Adobe Illustrator 24.2.0, SVG Export Plug-In . SVG Version: 6.00 Build 0)  -->
<svg version="1.1" id="logoipsum" xmlns="http://www.w3.org/2000/svg" xmlns:xlink="http://www.w3.org/1999/xlink" x="0px" y="0px"
	 viewBox="0 0 29.5 29.5" style="enable-background:new 0 0 29.5 29.5;" xml:space="preserve">


<path class="logoIpsum" d="M29.6,9.9c0-5.5-4.4-9.9-9.9-9.9c-2.8,0-5.4,1.2-7.3,3.2H0v26.3h26.3V17.2C28.4,15.4,29.6,12.7,29.6,9.9z
	 M24.6,9.9c0,2.7-2.1,4.8-4.8,4.8c-2.7,0-4.8-2.1-4.8-4.8c0-2.7,2.1-4.8,4.8-4.8c0,0,0,0,0,0C22.4,5.1,24.6,7.2,24.6,9.9z
	 M21.3,24.5H5.1V8.3H10C9.9,8.8,9.9,9.3,9.9,9.9c0,5.5,4.4,9.9,9.9,9.9c0.5,0,1,0,1.5-0.1V24.5z"/>
</svg>
